<mxfile host="app.diagrams.net" modified="2023-04-28T07:57:48.666Z" agent="5.0 (Windows NT 10.0; Win64; x64) AppleWebKit/537.36 (KHTML, like Gecko) Chrome/112.0.0.0 Safari/537.36" etag="zTv0FlYExn1JBr4QCEH8" version="20.8.20" type="github">
  <diagram name="Page-1" id="edf60f1a-56cd-e834-aa8a-f176f3a09ee4">
    <mxGraphModel dx="969" dy="493" grid="0" gridSize="10" guides="1" tooltips="1" connect="1" arrows="1" fold="1" page="1" pageScale="1" pageWidth="1100" pageHeight="850" background="none" math="0" shadow="0">
      <root>
        <mxCell id="0" />
        <mxCell id="1" parent="0" />
        <mxCell id="MFHxN7QSzjFUIQAsr9AZ-50" style="edgeStyle=orthogonalEdgeStyle;rounded=0;orthogonalLoop=1;jettySize=auto;html=1;" edge="1" parent="1" source="60e70716793133e9-4" target="MFHxN7QSzjFUIQAsr9AZ-2">
          <mxGeometry relative="1" as="geometry" />
        </mxCell>
        <mxCell id="60e70716793133e9-4" value="Kho nguyên liệu hóa chất" style="rounded=0;whiteSpace=wrap;html=1;shadow=1;labelBackgroundColor=none;strokeWidth=1;fontFamily=Verdana;fontSize=8;align=center;" parent="1" vertex="1">
          <mxGeometry x="190" y="183" width="120" height="60" as="geometry" />
        </mxCell>
        <mxCell id="60e70716793133e9-38" style="edgeStyle=orthogonalEdgeStyle;rounded=0;html=1;labelBackgroundColor=none;startSize=5;endArrow=classicThin;endFill=1;endSize=5;jettySize=auto;orthogonalLoop=1;strokeWidth=1;fontFamily=Verdana;fontSize=8" parent="1" source="60e70716793133e9-9" target="60e70716793133e9-11" edge="1">
          <mxGeometry relative="1" as="geometry" />
        </mxCell>
        <mxCell id="60e70716793133e9-9" value="Bồn mủ theo line" style="whiteSpace=wrap;html=1;rounded=0;shadow=1;labelBackgroundColor=none;strokeWidth=1;fontFamily=Verdana;fontSize=8;align=center;" parent="1" vertex="1">
          <mxGeometry x="190" y="361" width="120" height="40" as="geometry" />
        </mxCell>
        <mxCell id="60e70716793133e9-41" style="edgeStyle=orthogonalEdgeStyle;rounded=0;html=1;labelBackgroundColor=none;startSize=5;endArrow=classicThin;endFill=1;endSize=5;jettySize=auto;orthogonalLoop=1;strokeWidth=1;fontFamily=Verdana;fontSize=8" parent="1" source="60e70716793133e9-11" target="60e70716793133e9-13" edge="1">
          <mxGeometry relative="1" as="geometry" />
        </mxCell>
        <mxCell id="60e70716793133e9-11" value="Tạo đông" style="whiteSpace=wrap;html=1;rounded=0;shadow=1;labelBackgroundColor=none;strokeWidth=1;fontFamily=Verdana;fontSize=8;align=center;spacing=6;" parent="1" vertex="1">
          <mxGeometry x="190" y="425" width="120" height="40" as="geometry" />
        </mxCell>
        <mxCell id="60e70716793133e9-42" style="edgeStyle=orthogonalEdgeStyle;rounded=0;html=1;labelBackgroundColor=none;startSize=5;endArrow=classicThin;endFill=1;endSize=5;jettySize=auto;orthogonalLoop=1;strokeWidth=1;fontFamily=Verdana;fontSize=8;startArrow=none;" parent="1" source="60e70716793133e9-15" edge="1">
          <mxGeometry relative="1" as="geometry">
            <mxPoint x="250" y="580" as="targetPoint" />
          </mxGeometry>
        </mxCell>
        <mxCell id="MFHxN7QSzjFUIQAsr9AZ-54" style="edgeStyle=orthogonalEdgeStyle;rounded=0;orthogonalLoop=1;jettySize=auto;html=1;" edge="1" parent="1" source="60e70716793133e9-13" target="60e70716793133e9-15">
          <mxGeometry relative="1" as="geometry" />
        </mxCell>
        <mxCell id="60e70716793133e9-13" value="Tháo găng" style="whiteSpace=wrap;html=1;rounded=0;shadow=1;labelBackgroundColor=none;strokeWidth=1;fontFamily=Verdana;fontSize=8;align=center;" parent="1" vertex="1">
          <mxGeometry x="190" y="490" width="120" height="40" as="geometry" />
        </mxCell>
        <mxCell id="MFHxN7QSzjFUIQAsr9AZ-36" style="edgeStyle=orthogonalEdgeStyle;rounded=0;orthogonalLoop=1;jettySize=auto;html=1;entryX=0.5;entryY=0;entryDx=0;entryDy=0;" edge="1" parent="1" source="60e70716793133e9-15" target="MFHxN7QSzjFUIQAsr9AZ-4">
          <mxGeometry relative="1" as="geometry" />
        </mxCell>
        <mxCell id="MFHxN7QSzjFUIQAsr9AZ-21" style="edgeStyle=orthogonalEdgeStyle;rounded=0;orthogonalLoop=1;jettySize=auto;html=1;entryX=1;entryY=0.5;entryDx=0;entryDy=0;" edge="1" parent="1" source="60e70716793133e9-18" target="MFHxN7QSzjFUIQAsr9AZ-15">
          <mxGeometry relative="1" as="geometry" />
        </mxCell>
        <mxCell id="MFHxN7QSzjFUIQAsr9AZ-22" value="Phát hiện lỗi" style="edgeLabel;html=1;align=center;verticalAlign=middle;resizable=0;points=[];" vertex="1" connectable="0" parent="MFHxN7QSzjFUIQAsr9AZ-21">
          <mxGeometry x="-0.4168" y="-4" relative="1" as="geometry">
            <mxPoint as="offset" />
          </mxGeometry>
        </mxCell>
        <mxCell id="MFHxN7QSzjFUIQAsr9AZ-48" style="edgeStyle=orthogonalEdgeStyle;rounded=0;orthogonalLoop=1;jettySize=auto;html=1;" edge="1" parent="1" source="60e70716793133e9-18" target="60e70716793133e9-26">
          <mxGeometry relative="1" as="geometry" />
        </mxCell>
        <mxCell id="60e70716793133e9-18" value="Đóng gói" style="whiteSpace=wrap;html=1;rounded=0;shadow=1;labelBackgroundColor=none;strokeWidth=1;fontFamily=Verdana;fontSize=8;align=center;" parent="1" vertex="1">
          <mxGeometry x="190" y="852" width="120" height="40" as="geometry" />
        </mxCell>
        <mxCell id="MFHxN7QSzjFUIQAsr9AZ-20" style="edgeStyle=orthogonalEdgeStyle;rounded=0;orthogonalLoop=1;jettySize=auto;html=1;" edge="1" parent="1" source="60e70716793133e9-20" target="60e70716793133e9-18">
          <mxGeometry relative="1" as="geometry" />
        </mxCell>
        <mxCell id="MFHxN7QSzjFUIQAsr9AZ-27" style="edgeStyle=orthogonalEdgeStyle;rounded=0;orthogonalLoop=1;jettySize=auto;html=1;" edge="1" parent="1" source="60e70716793133e9-20" target="MFHxN7QSzjFUIQAsr9AZ-15">
          <mxGeometry relative="1" as="geometry">
            <Array as="points">
              <mxPoint x="410" y="792" />
            </Array>
          </mxGeometry>
        </mxCell>
        <mxCell id="MFHxN7QSzjFUIQAsr9AZ-30" value="Phát hiện lỗi" style="edgeLabel;html=1;align=center;verticalAlign=middle;resizable=0;points=[];" vertex="1" connectable="0" parent="MFHxN7QSzjFUIQAsr9AZ-27">
          <mxGeometry x="0.1097" y="3" relative="1" as="geometry">
            <mxPoint as="offset" />
          </mxGeometry>
        </mxCell>
        <mxCell id="60e70716793133e9-20" value="Kho trung chuyển&lt;br&gt;(Kho bán thành phẩm)" style="rounded=1;whiteSpace=wrap;html=1;shadow=1;labelBackgroundColor=none;strokeWidth=1;fontFamily=Verdana;fontSize=8;align=center;" parent="1" vertex="1">
          <mxGeometry x="190" y="782" width="120" height="40" as="geometry" />
        </mxCell>
        <mxCell id="MFHxN7QSzjFUIQAsr9AZ-17" value="Yes" style="edgeStyle=orthogonalEdgeStyle;rounded=0;orthogonalLoop=1;jettySize=auto;html=1;" edge="1" parent="1" source="60e70716793133e9-21" target="MFHxN7QSzjFUIQAsr9AZ-15">
          <mxGeometry relative="1" as="geometry">
            <Array as="points">
              <mxPoint x="330" y="722" />
              <mxPoint x="330" y="722" />
            </Array>
          </mxGeometry>
        </mxCell>
        <mxCell id="MFHxN7QSzjFUIQAsr9AZ-19" value="No" style="edgeStyle=orthogonalEdgeStyle;rounded=0;orthogonalLoop=1;jettySize=auto;html=1;entryX=0.5;entryY=0;entryDx=0;entryDy=0;" edge="1" parent="1" source="60e70716793133e9-21" target="60e70716793133e9-20">
          <mxGeometry relative="1" as="geometry" />
        </mxCell>
        <mxCell id="60e70716793133e9-21" value="Lựa lại" style="rhombus;whiteSpace=wrap;html=1;rounded=0;shadow=1;labelBackgroundColor=none;strokeWidth=1;fontFamily=Verdana;fontSize=8;align=center;" parent="1" vertex="1">
          <mxGeometry x="200" y="692" width="100" height="60" as="geometry" />
        </mxCell>
        <mxCell id="MFHxN7QSzjFUIQAsr9AZ-10" style="edgeStyle=orthogonalEdgeStyle;rounded=0;orthogonalLoop=1;jettySize=auto;html=1;" edge="1" parent="1" source="60e70716793133e9-23" target="60e70716793133e9-30">
          <mxGeometry relative="1" as="geometry" />
        </mxCell>
        <mxCell id="MFHxN7QSzjFUIQAsr9AZ-23" style="edgeStyle=orthogonalEdgeStyle;rounded=0;orthogonalLoop=1;jettySize=auto;html=1;" edge="1" parent="1" source="60e70716793133e9-23" target="MFHxN7QSzjFUIQAsr9AZ-15">
          <mxGeometry relative="1" as="geometry">
            <Array as="points">
              <mxPoint x="530" y="1032" />
              <mxPoint x="530" y="722" />
            </Array>
          </mxGeometry>
        </mxCell>
        <mxCell id="MFHxN7QSzjFUIQAsr9AZ-24" value="Phát hiện lỗi" style="edgeLabel;html=1;align=center;verticalAlign=middle;resizable=0;points=[];" vertex="1" connectable="0" parent="MFHxN7QSzjFUIQAsr9AZ-23">
          <mxGeometry x="-0.4482" y="2" relative="1" as="geometry">
            <mxPoint as="offset" />
          </mxGeometry>
        </mxCell>
        <mxCell id="60e70716793133e9-23" value="Kho thành phẩm" style="rounded=1;whiteSpace=wrap;html=1;shadow=1;labelBackgroundColor=none;strokeWidth=1;fontFamily=Verdana;fontSize=8;align=center;" parent="1" vertex="1">
          <mxGeometry x="190" y="1012" width="120" height="40" as="geometry" />
        </mxCell>
        <mxCell id="MFHxN7QSzjFUIQAsr9AZ-6" value="Yes" style="edgeStyle=orthogonalEdgeStyle;rounded=0;orthogonalLoop=1;jettySize=auto;html=1;entryX=0;entryY=0.5;entryDx=0;entryDy=0;" edge="1" parent="1" source="60e70716793133e9-26" target="MFHxN7QSzjFUIQAsr9AZ-5">
          <mxGeometry relative="1" as="geometry" />
        </mxCell>
        <mxCell id="MFHxN7QSzjFUIQAsr9AZ-9" value="No" style="edgeStyle=orthogonalEdgeStyle;rounded=0;orthogonalLoop=1;jettySize=auto;html=1;" edge="1" parent="1" source="60e70716793133e9-26" target="60e70716793133e9-23">
          <mxGeometry relative="1" as="geometry" />
        </mxCell>
        <mxCell id="60e70716793133e9-26" value="Hàng phẫu thuật &lt;br&gt;tiệt trùng" style="rhombus;whiteSpace=wrap;html=1;rounded=0;shadow=1;labelBackgroundColor=none;strokeWidth=1;fontFamily=Verdana;fontSize=8;align=center;" parent="1" vertex="1">
          <mxGeometry x="200" y="912" width="100" height="70" as="geometry" />
        </mxCell>
        <mxCell id="60e70716793133e9-30" value="Kết thúc" style="strokeWidth=1;html=1;shape=mxgraph.flowchart.terminator;whiteSpace=wrap;rounded=0;shadow=1;labelBackgroundColor=none;fontFamily=Verdana;fontSize=8;align=center;" parent="1" vertex="1">
          <mxGeometry x="220" y="1072" width="60" height="30" as="geometry" />
        </mxCell>
        <mxCell id="MFHxN7QSzjFUIQAsr9AZ-1" value="Kho chất đốt" style="rounded=0;whiteSpace=wrap;html=1;shadow=1;labelBackgroundColor=none;strokeWidth=1;fontFamily=Verdana;fontSize=8;align=center;" vertex="1" parent="1">
          <mxGeometry x="388" y="447" width="120" height="60" as="geometry" />
        </mxCell>
        <mxCell id="MFHxN7QSzjFUIQAsr9AZ-43" style="edgeStyle=orthogonalEdgeStyle;rounded=0;orthogonalLoop=1;jettySize=auto;html=1;" edge="1" parent="1" source="MFHxN7QSzjFUIQAsr9AZ-2" target="60e70716793133e9-9">
          <mxGeometry relative="1" as="geometry" />
        </mxCell>
        <mxCell id="MFHxN7QSzjFUIQAsr9AZ-2" value="Phối trộn / Ủ" style="verticalLabelPosition=middle;verticalAlign=middle;html=1;shape=trapezoid;perimeter=trapezoidPerimeter;whiteSpace=wrap;size=0.23;arcSize=10;flipV=1;labelPosition=center;align=center;" vertex="1" parent="1">
          <mxGeometry x="200" y="266" width="100" height="60" as="geometry" />
        </mxCell>
        <mxCell id="MFHxN7QSzjFUIQAsr9AZ-49" style="edgeStyle=orthogonalEdgeStyle;rounded=0;orthogonalLoop=1;jettySize=auto;html=1;entryX=0.5;entryY=0;entryDx=0;entryDy=0;" edge="1" parent="1" source="MFHxN7QSzjFUIQAsr9AZ-4" target="60e70716793133e9-21">
          <mxGeometry relative="1" as="geometry" />
        </mxCell>
        <mxCell id="MFHxN7QSzjFUIQAsr9AZ-4" value="QA1" style="whiteSpace=wrap;html=1;rounded=0;shadow=1;labelBackgroundColor=none;strokeWidth=1;fontFamily=Verdana;fontSize=8;align=center;" vertex="1" parent="1">
          <mxGeometry x="190" y="620" width="120" height="40" as="geometry" />
        </mxCell>
        <mxCell id="MFHxN7QSzjFUIQAsr9AZ-11" style="edgeStyle=orthogonalEdgeStyle;rounded=0;orthogonalLoop=1;jettySize=auto;html=1;entryX=1;entryY=0.75;entryDx=0;entryDy=0;" edge="1" parent="1" source="MFHxN7QSzjFUIQAsr9AZ-5" target="60e70716793133e9-23">
          <mxGeometry relative="1" as="geometry">
            <Array as="points">
              <mxPoint x="420" y="1042" />
            </Array>
          </mxGeometry>
        </mxCell>
        <mxCell id="MFHxN7QSzjFUIQAsr9AZ-5" value="Tiệt trùng" style="rounded=1;whiteSpace=wrap;html=1;shadow=1;labelBackgroundColor=none;strokeWidth=1;fontFamily=Verdana;fontSize=8;align=center;" vertex="1" parent="1">
          <mxGeometry x="360" y="927" width="120" height="40" as="geometry" />
        </mxCell>
        <mxCell id="MFHxN7QSzjFUIQAsr9AZ-29" style="edgeStyle=orthogonalEdgeStyle;rounded=0;orthogonalLoop=1;jettySize=auto;html=1;entryX=1;entryY=0.5;entryDx=0;entryDy=0;" edge="1" parent="1" source="MFHxN7QSzjFUIQAsr9AZ-15" target="60e70716793133e9-20">
          <mxGeometry relative="1" as="geometry">
            <Array as="points">
              <mxPoint x="440" y="802" />
            </Array>
          </mxGeometry>
        </mxCell>
        <mxCell id="MFHxN7QSzjFUIQAsr9AZ-31" value="Nhập kho theo loại G" style="edgeLabel;html=1;align=center;verticalAlign=middle;resizable=0;points=[];" vertex="1" connectable="0" parent="MFHxN7QSzjFUIQAsr9AZ-29">
          <mxGeometry x="-0.4933" y="4" relative="1" as="geometry">
            <mxPoint x="-34" y="22" as="offset" />
          </mxGeometry>
        </mxCell>
        <mxCell id="MFHxN7QSzjFUIQAsr9AZ-15" value="Lựa hàng" style="whiteSpace=wrap;html=1;rounded=0;shadow=1;labelBackgroundColor=none;strokeWidth=1;fontFamily=Verdana;fontSize=8;align=center;" vertex="1" parent="1">
          <mxGeometry x="350" y="702" width="120" height="40" as="geometry" />
        </mxCell>
        <mxCell id="MFHxN7QSzjFUIQAsr9AZ-52" style="edgeStyle=orthogonalEdgeStyle;rounded=0;orthogonalLoop=1;jettySize=auto;html=1;" edge="1" parent="1" source="MFHxN7QSzjFUIQAsr9AZ-32" target="60e70716793133e9-4">
          <mxGeometry relative="1" as="geometry" />
        </mxCell>
        <mxCell id="MFHxN7QSzjFUIQAsr9AZ-32" value="Bắt đầu" style="strokeWidth=2;html=1;shape=mxgraph.flowchart.start_2;whiteSpace=wrap;" vertex="1" parent="1">
          <mxGeometry x="230" y="110" width="40" height="30" as="geometry" />
        </mxCell>
        <mxCell id="MFHxN7QSzjFUIQAsr9AZ-46" value="" style="strokeWidth=2;html=1;shape=mxgraph.flowchart.annotation_2;align=left;labelPosition=right;pointerEvents=1;direction=west;" vertex="1" parent="1">
          <mxGeometry x="330" y="378" width="50" height="198" as="geometry" />
        </mxCell>
        <mxCell id="60e70716793133e9-15" value="Sấy" style="whiteSpace=wrap;html=1;rounded=0;shadow=1;labelBackgroundColor=none;strokeWidth=1;fontFamily=Verdana;fontSize=8;align=center;" parent="1" vertex="1">
          <mxGeometry x="190" y="555" width="120" height="40" as="geometry" />
        </mxCell>
      </root>
    </mxGraphModel>
  </diagram>
</mxfile>
